<svg width="71" height="71" viewBox="0 0 71 71" fill="none" xmlns="http://www.w3.org/2000/svg">
<path d="M34.3196 34.3283C34.3196 29.972 39.3648 26.4355 45.5794 26.4355C51.7941 26.4355 56.8393 29.972 56.8393 34.3283C56.8393 38.6846 51.7941 42.2211 45.5794 42.2211C39.3648 42.2211 34.3196 38.6846 34.3196 34.3283Z" fill="#F2FAFF"/>
<path d="M11.8333 50.0904C11.8333 45.7342 16.8785 42.1976 23.0932 42.1976H34.353V50.0904C34.353 54.4467 29.3078 57.9833 23.0932 57.9833C16.8785 57.9833 11.8333 54.4467 11.8333 50.0904Z" fill="#F2FAFF"/>
<path d="M35.4637 10.6734V26.4357H46.7235C52.9381 26.4357 57.9833 22.8991 57.9833 18.5428C57.9833 14.1866 52.9381 10.65 46.7235 10.65H35.4637V10.6734Z" fill="#F2FAFF"/>
<path d="M11.8333 18.5662C11.8333 22.9225 16.8785 26.4591 23.0932 26.4591H34.353V10.6968H23.0932C16.8785 10.6734 11.8333 14.21 11.8333 18.5662Z" fill="#F2FAFF"/>
<path d="M11.8333 34.3284C11.8333 38.6847 16.8785 42.2212 23.0932 42.2212H34.353V26.459H23.0932C16.8785 26.4356 11.8333 29.9721 11.8333 34.3284Z" fill="#F2FAFF"/>
</svg>
