<svg width="71" height="71" viewBox="0 0 71 71" fill="none" xmlns="http://www.w3.org/2000/svg">
<path d="M27.3089 49.1833L21.5889 40.5833L16.5489 49.1833H8.78891L17.7889 34.9033L8.58891 21.1033H16.5489L22.1889 29.5833L27.1489 21.1033H34.9089L25.9889 35.2633L35.2689 49.1833H27.3089ZM37.3427 37.9833C37.3427 35.69 37.7693 33.6767 38.6227 31.9433C39.5027 30.21 40.6893 28.8767 42.1827 27.9433C43.676 27.01 45.3427 26.5433 47.1827 26.5433C48.6493 26.5433 49.9827 26.85 51.1827 27.4633C52.4093 28.0767 53.3693 28.9033 54.0627 29.9433V19.5833H60.9027V49.1833H54.0627V45.9833C53.4227 47.05 52.5027 47.9033 51.3027 48.5433C50.1293 49.1833 48.756 49.5033 47.1827 49.5033C45.3427 49.5033 43.676 49.0367 42.1827 48.1033C40.6893 47.1433 39.5027 45.7967 38.6227 44.0633C37.7693 42.3033 37.3427 40.2767 37.3427 37.9833ZM54.0627 38.0233C54.0627 36.3167 53.5827 34.97 52.6227 33.9833C51.6893 32.9967 50.5427 32.5033 49.1827 32.5033C47.8227 32.5033 46.6627 32.9967 45.7027 33.9833C44.7693 34.9433 44.3027 36.2767 44.3027 37.9833C44.3027 39.69 44.7693 41.05 45.7027 42.0633C46.6627 43.05 47.8227 43.5433 49.1827 43.5433C50.5427 43.5433 51.6893 43.05 52.6227 42.0633C53.5827 41.0767 54.0627 39.73 54.0627 38.0233Z" fill="#F2FAFF"/>
</svg>
